# xmcd CD database file
#
# Track frame offsets:
#	150
#	13750
#	27725
#	38225
#	49675
#	59625
#	69645
#	84012
#	97350
#	108300
#	123350
#
# Disc length: 1789 seconds
#
# Revision: 0
# Processed by: cddbd v1.5.1PL2 Copyright (c) Steve Scherf et al.
# Submitted via: CDex 1.51
#
DISCID=9806fb0b
DTITLE=ナンシー梅木 - Miyoshi
DYEAR=1960
DGENRE=Jazz
TTITLE0=My Heart Stood Still
TTITLE1=My Ship
TTITLE2=You Make Me Feel So Young
TTITLE3=They Can't Take That Away From Me
TTITLE4=Sometimes I'm Happy
TTITLE5=I'm Old Fashined
TTITLE6=That Old Feeing
TTITLE7=Gone With The Wind
TTITLE8=Jeepers Creepers
TTITLE9=Wonder Why
TTITLE10=I Could Write A Book
EXTD=YEAR: 1960
EXTT0=
EXTT1=
EXTT2=
EXTT3=
EXTT4=
EXTT5=
EXTT6=
EXTT7=
EXTT8=
EXTT9=
EXTT10=
PLAYORDER=
